<svg preserveAspectRatio="xMidYMid meet" data-bbox="0 0 226.27 120.965" viewBox="0 0 226.27 120.965" xmlns="http://www.w3.org/2000/svg" data-type="color" role="img" aria-label="antioch Christian Resource Center Logo"><defs><style>#comp-logz4ac9_r_comp-logyx676 svg [data-color="1"] {fill: #000000;}</style></defs>
    <g>
        <g>
            <path d="M11 116.27a5.13 5.13 0 0 1-1.6 3.43 5.34 5.34 0 0 1-3.67 1.21 4.91 4.91 0 0 1-4-1.78 7.14 7.14 0 0 1-1.5-4.76V113a7.9 7.9 0 0 1 .7-3.43 5.16 5.16 0 0 1 2-2.27 5.52 5.52 0 0 1 3-.79 5 5 0 0 1 3.57 1.24 5.22 5.22 0 0 1 1.5 3.47H9.18a4 4 0 0 0-1-2.43A3.1 3.1 0 0 0 5.9 108a3.32 3.32 0 0 0-2.78 1.31 6 6 0 0 0-1 3.73v1.35a6.22 6.22 0 0 0 .95 3.63 3.06 3.06 0 0 0 2.66 1.35 3.52 3.52 0 0 0 2.36-.7 3.84 3.84 0 0 0 1.09-2.43Z" fill="#720000" data-color="1"></path>
            <path d="M15.06 111.57a3.77 3.77 0 0 1 3.08-1.45q3.28 0 3.32 3.72v6.87h-1.78v-6.88a2.39 2.39 0 0 0-.51-1.66 2.06 2.06 0 0 0-1.57-.54 2.53 2.53 0 0 0-1.52.46 3.08 3.08 0 0 0-1 1.21v7.41h-1.8V106h1.78Z" fill="#720000" data-color="1"></path>
            <path d="M29.15 111.91a4.79 4.79 0 0 0-.87-.07 2.35 2.35 0 0 0-2.38 1.49v7.38h-1.77v-10.4h1.73v1.2a2.77 2.77 0 0 1 2.48-1.39 1.82 1.82 0 0 1 .79.13Z" fill="#720000" data-color="1"></path>
            <path d="M30.8 107.55a1.06 1.06 0 0 1 .26-.73 1.18 1.18 0 0 1 1.57 0 1.06 1.06 0 0 1 .27.73 1 1 0 0 1-.27.72 1 1 0 0 1-1.83-.72m1.92 13.16h-1.78v-10.4h1.78Z" fill="#720000" data-color="1"></path>
            <path d="M41.62 118a1.33 1.33 0 0 0-.54-1.12 5.27 5.27 0 0 0-1.9-.68 8.93 8.93 0 0 1-2.14-.7 2.86 2.86 0 0 1-1.17-1 2.3 2.3 0 0 1-.38-1.32 2.7 2.7 0 0 1 1.08-2.18 4.27 4.27 0 0 1 2.76-.88 4.33 4.33 0 0 1 2.87.91 2.89 2.89 0 0 1 1.1 2.34h-1.78a1.61 1.61 0 0 0-.62-1.26 2.37 2.37 0 0 0-1.57-.53 2.42 2.42 0 0 0-1.51.42 1.33 1.33 0 0 0-.55 1.11 1.08 1.08 0 0 0 .51 1 6 6 0 0 0 1.84.62 9.53 9.53 0 0 1 2.16.72 3 3 0 0 1 1.22 1 2.42 2.42 0 0 1 .4 1.42 2.69 2.69 0 0 1-1.11 2.24 4.71 4.71 0 0 1-2.9.84 5.16 5.16 0 0 1-2.21-.45 3.52 3.52 0 0 1-1.5-1.23 3 3 0 0 1-.55-1.72h1.78a1.82 1.82 0 0 0 .72 1.42 2.75 2.75 0 0 0 1.76.52 2.86 2.86 0 0 0 1.62-.4 1.27 1.27 0 0 0 .61-1.1" fill="#720000" data-color="1"></path>
            <path d="M48.13 107.79v2.52h1.94v1.38h-1.94v6.46a1.48 1.48 0 0 0 .26.94 1.12 1.12 0 0 0 .89.31 4.16 4.16 0 0 0 .84-.12v1.44a5.5 5.5 0 0 1-1.36.19 2.21 2.21 0 0 1-1.8-.72 3.08 3.08 0 0 1-.61-2v-6.45h-1.89v-1.38h1.89v-2.52Z" fill="#720000" data-color="1"></path>
            <path d="M52.16 107.55a1.11 1.11 0 0 1 .26-.73 1 1 0 0 1 .79-.3 1 1 0 0 1 .79.3 1.11 1.11 0 0 1 .26.73 1 1 0 0 1-.26.72 1 1 0 0 1-.79.29 1 1 0 0 1-.79-.29 1 1 0 0 1-.26-.72m1.92 13.16H52.3v-10.4h1.78Z" fill="#720000" data-color="1"></path>
            <path d="M63.35 120.71a3.64 3.64 0 0 1-.25-1.09 4 4 0 0 1-3 1.29 3.69 3.69 0 0 1-2.53-.87 2.84 2.84 0 0 1-1-2.21 2.94 2.94 0 0 1 1.23-2.52 5.85 5.85 0 0 1 3.48-.9h1.73v-.82a2 2 0 0 0-.56-1.49 2.27 2.27 0 0 0-1.64-.55 2.6 2.6 0 0 0-1.6.48 1.44 1.44 0 0 0-.64 1.17h-1.73a2.53 2.53 0 0 1 .55-1.51 3.87 3.87 0 0 1 1.51-1.15 5 5 0 0 1 2.07-.42 4.12 4.12 0 0 1 2.82.9 3.25 3.25 0 0 1 1.06 2.47v4.79a5.91 5.91 0 0 0 .36 2.28v.15Zm-3-1.35a3.15 3.15 0 0 0 1.58-.43 2.63 2.63 0 0 0 1.09-1.13v-2.13h-1.34c-2.18 0-3.27.63-3.27 1.91a1.64 1.64 0 0 0 .56 1.31 2.14 2.14 0 0 0 1.43.47" fill="#720000" data-color="1"></path>
            <path d="m69.32 110.31.06 1.31a3.78 3.78 0 0 1 3.11-1.5q3.3 0 3.33 3.72v6.87H74v-6.88a2.44 2.44 0 0 0-.51-1.66 2.07 2.07 0 0 0-1.58-.54 2.52 2.52 0 0 0-1.51.46 3.08 3.08 0 0 0-1 1.21v7.41h-1.76v-10.4Z" fill="#720000" data-color="1"></path>
            <path d="M88.79 115.05H85.5v5.66h-1.85v-14h4.63a5.53 5.53 0 0 1 3.64 1.07 3.89 3.89 0 0 1 1.27 3.14 3.78 3.78 0 0 1-.7 2.28 4.27 4.27 0 0 1-2 1.45l3.29 5.94v.11h-2Zm-3.29-1.51h2.84a3.21 3.21 0 0 0 2.18-.71 2.38 2.38 0 0 0 .82-1.91 2.53 2.53 0 0 0-.78-2 3.24 3.24 0 0 0-2.23-.7H85.5Z" fill="#720000" data-color="1"></path>
            <path d="M99.82 120.91a4.59 4.59 0 0 1-3.45-1.39 5.19 5.19 0 0 1-1.32-3.72v-.33a6.15 6.15 0 0 1 .59-2.76 4.57 4.57 0 0 1 1.65-1.9 4.16 4.16 0 0 1 2.3-.69 3.9 3.9 0 0 1 3.16 1.34 5.76 5.76 0 0 1 1.12 3.82v.72h-7a3.68 3.68 0 0 0 .89 2.49 2.85 2.85 0 0 0 2.19.95 3.08 3.08 0 0 0 1.6-.39 4.23 4.23 0 0 0 1.14-1l1.09.85a4.37 4.37 0 0 1-3.92 2m-.23-9.33a2.34 2.34 0 0 0-1.8.79 3.8 3.8 0 0 0-.91 2.19h5.21v-.13a3.32 3.32 0 0 0-.73-2.1 2.21 2.21 0 0 0-1.77-.75" fill="#720000" data-color="1"></path>
            <path d="M112 118a1.33 1.33 0 0 0-.54-1.12 5.43 5.43 0 0 0-1.9-.68 8.78 8.78 0 0 1-2.14-.7 3 3 0 0 1-1.18-1 2.3 2.3 0 0 1-.38-1.32 2.68 2.68 0 0 1 1.09-2.17 4.27 4.27 0 0 1 2.76-.88 4.33 4.33 0 0 1 2.87.91 2.92 2.92 0 0 1 1.1 2.34h-1.79a1.58 1.58 0 0 0-.62-1.26 2.32 2.32 0 0 0-1.56-.53 2.45 2.45 0 0 0-1.52.42 1.36 1.36 0 0 0-.55 1.11 1.08 1.08 0 0 0 .51 1 6.06 6.06 0 0 0 1.84.62 9.37 9.37 0 0 1 2.16.72 3.13 3.13 0 0 1 1.23 1 2.5 2.5 0 0 1 .4 1.42 2.69 2.69 0 0 1-1.12 2.24 4.68 4.68 0 0 1-2.89.84 5.13 5.13 0 0 1-2.21-.45 3.55 3.55 0 0 1-1.51-1.23 3 3 0 0 1-.54-1.72h1.78a1.84 1.84 0 0 0 .71 1.42 2.8 2.8 0 0 0 1.77.52 2.9 2.9 0 0 0 1.62-.4 1.29 1.29 0 0 0 .61-1.1" fill="#720000" data-color="1"></path>
            <path d="M115.61 115.42a6.14 6.14 0 0 1 .6-2.75 4.43 4.43 0 0 1 1.68-1.89 4.55 4.55 0 0 1 2.44-.66 4.4 4.4 0 0 1 3.44 1.47 5.67 5.67 0 0 1 1.31 3.91v.13a6.14 6.14 0 0 1-.58 2.72 4.41 4.41 0 0 1-1.66 1.88 4.6 4.6 0 0 1-2.49.68 4.39 4.39 0 0 1-3.43-1.47 5.66 5.66 0 0 1-1.31-3.9Zm1.79.21a4.5 4.5 0 0 0 .8 2.78 2.74 2.74 0 0 0 4.31 0 4.88 4.88 0 0 0 .79-3 4.48 4.48 0 0 0-.81-2.78 2.6 2.6 0 0 0-2.16-1.06 2.54 2.54 0 0 0-2.12 1 4.83 4.83 0 0 0-.81 3" fill="#720000" data-color="1"></path>
            <path d="M133.73 119.69a3.78 3.78 0 0 1-3 1.22 3.23 3.23 0 0 1-2.54-1 4.2 4.2 0 0 1-.88-2.86v-6.77h1.78V117q0 2.37 1.92 2.37a2.68 2.68 0 0 0 2.72-1.52v-7.57h1.77v10.41h-1.69Z" fill="#720000" data-color="1"></path>
            <path d="M143.2 111.91a4.91 4.91 0 0 0-.88-.07 2.35 2.35 0 0 0-2.38 1.49v7.38h-1.77v-10.4h1.73v1.2a2.76 2.76 0 0 1 2.47-1.39 1.87 1.87 0 0 1 .8.13Z" fill="#720000" data-color="1"></path>
            <path d="M148.82 119.45a2.57 2.57 0 0 0 1.66-.57 2 2 0 0 0 .79-1.44H153a3.2 3.2 0 0 1-.61 1.7 4.08 4.08 0 0 1-1.52 1.29 4.61 4.61 0 0 1-5.38-.94 5.64 5.64 0 0 1-1.25-3.88v-.3a6.29 6.29 0 0 1 .55-2.7 4.25 4.25 0 0 1 1.61-1.84 4.56 4.56 0 0 1 2.46-.65 4.16 4.16 0 0 1 2.91 1 3.74 3.74 0 0 1 1.23 2.72h-1.68a2.44 2.44 0 0 0-.76-1.66 2.41 2.41 0 0 0-1.7-.65 2.5 2.5 0 0 0-2.1 1 4.56 4.56 0 0 0-.75 2.82v.34a4.49 4.49 0 0 0 .74 2.76 2.51 2.51 0 0 0 2.12 1" fill="#720000" data-color="1"></path>
            <path d="M159.27 120.91a4.56 4.56 0 0 1-3.44-1.39 5.15 5.15 0 0 1-1.33-3.72v-.33a6.29 6.29 0 0 1 .59-2.76 4.66 4.66 0 0 1 1.66-1.9 4.11 4.11 0 0 1 2.3-.69 3.9 3.9 0 0 1 3.15 1.34 5.77 5.77 0 0 1 1.13 3.82v.72h-7.05a3.64 3.64 0 0 0 .9 2.49 2.82 2.82 0 0 0 2.18.95 3.08 3.08 0 0 0 1.6-.39 4 4 0 0 0 1.14-1l1.09.85a4.37 4.37 0 0 1-3.92 2m-.22-9.33a2.36 2.36 0 0 0-1.81.79 3.73 3.73 0 0 0-.9 2.19h5.21v-.13a3.38 3.38 0 0 0-.73-2.1 2.24 2.24 0 0 0-1.77-.75" fill="#720000" data-color="1"></path>
            <path d="M180.84 116.27a5.22 5.22 0 0 1-1.64 3.43 5.36 5.36 0 0 1-3.67 1.21 4.93 4.93 0 0 1-4-1.78 7.14 7.14 0 0 1-1.49-4.76V113a8 8 0 0 1 .69-3.43 5.24 5.24 0 0 1 2-2.27 5.48 5.48 0 0 1 3-.79 5.06 5.06 0 0 1 3.58 1.24 5.26 5.26 0 0 1 1.57 3.45H179a4 4 0 0 0-1-2.43 3.14 3.14 0 0 0-2.25-.76 3.3 3.3 0 0 0-2.77 1.31 6 6 0 0 0-1 3.73v1.35a6.22 6.22 0 0 0 1 3.63 3.09 3.09 0 0 0 2.67 1.35 3.54 3.54 0 0 0 2.36-.7 3.84 3.84 0 0 0 1.09-2.43Z" fill="#720000" data-color="1"></path>
            <path d="M187.39 120.91a4.56 4.56 0 0 1-3.44-1.39 5.2 5.2 0 0 1-1.33-3.72v-.33a6.29 6.29 0 0 1 .59-2.76 4.66 4.66 0 0 1 1.66-1.9 4.11 4.11 0 0 1 2.3-.69 3.9 3.9 0 0 1 3.15 1.34 5.77 5.77 0 0 1 1.13 3.82v.72h-7a3.74 3.74 0 0 0 .9 2.49 2.84 2.84 0 0 0 2.19.95 3 3 0 0 0 1.59-.39 4.12 4.12 0 0 0 1.15-1l1.08.85a4.37 4.37 0 0 1-3.92 2m-.22-9.33a2.36 2.36 0 0 0-1.81.79 3.8 3.8 0 0 0-.9 2.19h5.21v-.13a3.32 3.32 0 0 0-.73-2.1 2.24 2.24 0 0 0-1.77-.75" fill="#720000" data-color="1"></path>
            <path d="m195.19 110.31.06 1.31a3.78 3.78 0 0 1 3.11-1.5q3.3 0 3.33 3.72v6.87h-1.78v-6.88a2.44 2.44 0 0 0-.51-1.66 2.08 2.08 0 0 0-1.58-.54 2.58 2.58 0 0 0-1.52.46 3.26 3.26 0 0 0-1 1.21v7.41h-1.77v-10.4Z" fill="#720000" data-color="1"></path>
            <path d="M206.78 107.79v2.52h1.95v1.38h-1.95v6.46a1.48 1.48 0 0 0 .26.94 1.14 1.14 0 0 0 .89.31 4.16 4.16 0 0 0 .84-.12v1.44a5.43 5.43 0 0 1-1.36.19 2.21 2.21 0 0 1-1.8-.72 3.13 3.13 0 0 1-.61-2v-6.45h-1.89v-1.38H205v-2.52Z" fill="#720000" data-color="1"></path>
            <path d="M215.12 120.91a4.56 4.56 0 0 1-3.44-1.39 5.15 5.15 0 0 1-1.33-3.72v-.33a6.29 6.29 0 0 1 .59-2.76 4.59 4.59 0 0 1 1.66-1.9 4.11 4.11 0 0 1 2.3-.69 3.9 3.9 0 0 1 3.15 1.34 5.77 5.77 0 0 1 1.13 3.82v.72h-7.05a3.64 3.64 0 0 0 .9 2.49 2.82 2.82 0 0 0 2.18.95 3.08 3.08 0 0 0 1.6-.39 4 4 0 0 0 1.14-1l1.09.85a4.37 4.37 0 0 1-3.92 2m-.22-9.33a2.36 2.36 0 0 0-1.81.79 3.73 3.73 0 0 0-.9 2.19h5.21v-.13a3.38 3.38 0 0 0-.73-2.1 2.24 2.24 0 0 0-1.77-.75" fill="#720000" data-color="1"></path>
            <path d="M226.26 111.91a4.79 4.79 0 0 0-.87-.07 2.35 2.35 0 0 0-2.38 1.49v7.38h-1.78v-10.4H223v1.2a2.76 2.76 0 0 1 2.48-1.39 1.82 1.82 0 0 1 .79.13Z" fill="#720000" data-color="1"></path>
            <path d="M35.77 99c-.09-.07-.19-.13-.35-.23l-.64-.33a3.51 3.51 0 0 1-1.48-1.27 70.58 70.58 0 0 1-6.44-13q-2.24-5.82-4.41-11.65c-.43-1-.83-2-1.23-3A7.08 7.08 0 0 0 20 67.67a1.84 1.84 0 0 0-1.24-.67l-5.21.14c-.31 0-.64.08-1 .14a1.5 1.5 0 0 0-.48.16.49.49 0 0 0-.18.17.43.43 0 0 0-.09.26V68l.09.09a.83.83 0 0 0 .6.26h.88a1.68 1.68 0 0 1 1.1.41 1.26 1.26 0 0 1 .45 1 2.17 2.17 0 0 1-.06.37 35.93 35.93 0 0 1-1.3 3.7q-1.08 2.73-3 7.21-4 9.24-5.75 12.85a14.71 14.71 0 0 1-4.16 5.27l-.65.5h.82c.47 0 1.27 0 2.39.16s1.92.16 2.39.16l7.4-.84-1.26-.38c-1.18-.37-2.36-.74-3.53-1.14a1.87 1.87 0 0 1-1-.8 2.84 2.84 0 0 1-.33-1.44 18.48 18.48 0 0 1 1.8-6.09l1.09-2.78a9.67 9.67 0 0 1 .95-1.71 1.76 1.76 0 0 1 .37-.39.38.38 0 0 1 .2-.1h9a65.78 65.78 0 0 1 2.92 6.11q1.14 2.59 2.28 5.24a9.58 9.58 0 0 0 2.21 3 4.15 4.15 0 0 0 2.69 1l5.58-.3-.19-.37a.39.39 0 0 0-.09-.11M17 74.66l2.32 6.11c.26.68.45 1.19.58 1.54l.14.4v.09h-8.42l4.32-10.27a13 13 0 0 1 1 2.08" fill="#720000" data-color="1"></path>
            <path d="M69 67.37a12.94 12.94 0 0 0-3.46.83c-.72.25-1.28.45-1.69.61l-.52.21a2.15 2.15 0 0 0-.32.18l-.7.5h.86c.38 0 1.31 0 2.83-.14a.83.83 0 0 1 .3 0q.31 3.17.36 4.74.27 4.88.54 10l.23 7q-8.49-8.3-11.13-11a96.56 96.56 0 0 1-10.58-12.9l-.09-.13h-.16q-5.46.36-8.3.68l-1 .12.93.41A7.68 7.68 0 0 1 41.24 72a10.89 10.89 0 0 1 .65 4.38l-.32 5.55v2.56c0 5.67-.32 9.63-.94 11.86a2.61 2.61 0 0 1-1.08 1.4l-1 .74-.29.21-.09.07h-.06l-.35.35.48.12a16.66 16.66 0 0 0 3.52.28 22.09 22.09 0 0 0 4.24-.46l2.57-.55.66-.13h.16v-.55a16.68 16.68 0 0 0-2.39-.31 4.34 4.34 0 0 1-2.18-.61 1 1 0 0 1-.43-.54 1.91 1.91 0 0 1-.09-.33q-.06-.26-.12-.66c-.31-2.81-.46-4.82-.46-6-.08-2.71-.12-5.2-.12-7.49s.05-4.58.14-6.53q2.94 2.94 9.44 9.62 4.56 4.7 12.71 12.71c.73.71 1.29 1.25 1.68 1.61.19.18.35.32.46.41l.15.12h.07a.48.48 0 0 0 .15 0 .68.68 0 0 0 .47-.17l.07-.08v-.1q.27-4.2.55-8.38c.33-5.44.5-8.53.5-9.31v-2.08c0-.07 0-.37.06-.85.12-1.43.41-4.57.88-9.4a10.13 10.13 0 0 1 2-.59c.49-.13.89-.25 1.22-.36a2.73 2.73 0 0 0 .75-.38l.58-.45h-.74Z" fill="#720000" data-color="1"></path>
            <path d="M107.24 67h-.06a22.63 22.63 0 0 1-5.13.54h-8.47l-11.43-.37a.85.85 0 0 0-.48.17 2.17 2.17 0 0 0-.57.7 8 8 0 0 0-.53 1.18c-.22.72-.43 1.45-.64 2.17-.15.37-.26.66-.34.87l-.09.25v.09a.27.27 0 0 0 0 .11v.59h.88l.07-.19a3.44 3.44 0 0 1 1-1.43 3.25 3.25 0 0 1 1.34-.82c.41-.1 1.58-.31 3.46-.61a38 38 0 0 1 4.14-.45 1.28 1.28 0 0 1 .18.47 34.7 34.7 0 0 1 .33 6l-.14 12.93c-.24 3.27-.43 5.57-.57 6.88a6.41 6.41 0 0 1-.64 2.56 1.61 1.61 0 0 1-.59.28 1.32 1.32 0 0 0-.48.21.72.72 0 0 0-.3.37l-.11.33 1.31.13h.06a2.29 2.29 0 0 1 .77-.17l2.22-.17.94-.05 4.76.23a2 2 0 0 0 .85-.33l.62-.47h-.76l-.38-.09-1-.26a4.31 4.31 0 0 1-.75-.28.71.71 0 0 1-.31-.27 3.92 3.92 0 0 1-.51-1.78c0-.58-.05-1-.08-1.36s0-.49 0-.6l-.09-5.9.18-9.92c.06-1.64.13-3.27.23-4.91 0-1.13.11-2 .2-2.73a5.41 5.41 0 0 1 .26-1.21c.19 0 .45 0 .78-.07h.71a32.59 32.59 0 0 1 5.2.32 6.34 6.34 0 0 1 1.45.38 1.31 1.31 0 0 1 .63.45 1.84 1.84 0 0 1 .16.37c.07.2.16.46.27.8a6.52 6.52 0 0 0 .25.65 1.07 1.07 0 0 0 .13.21l.1.09a.36.36 0 0 0 .19.06.84.84 0 0 0 .43-.14l.12-.08v-.7a6.84 6.84 0 0 1 .37-2.1c.26-.78.53-1.57.8-2.36l.1-.29-.3-.07Z" fill="#720000" data-color="1"></path>
            <path d="m116.44 98.6-.21-.1a2.34 2.34 0 0 1-.43-1.24l-.18-1.43.09-14.56q.18-8.13.91-14.22v-.31H116V67l-.12-.2.12.2-.08-.21v.08-.08l-.29.06-.71.12a17.58 17.58 0 0 1-2.84.2h-3.27l.52.48a3.4 3.4 0 0 1 1.18 2.47c0 1 .06 2 .09 3a9.62 9.62 0 0 1 .09 1.11v10.19l-.18 7.41-.85 8h7.55l.08-.12a2.05 2.05 0 0 0 .16-.26.62.62 0 0 0 .07-.26V99l-.18-.07-.91-.34M116 67l-.2-.14Z" fill="#720000" data-color="1"></path>
            <path d="M153.67 70.81c-3-2.69-7-4-11.78-4S133 68 129.79 70.53c-3.65 2.93-5.82 7.37-6.52 13.25a8.19 8.19 0 0 0-.07 1.09 7 7 0 0 0 .07 1c.67 5.08 2.66 8.92 6 11.43a17.08 17.08 0 0 0 10.69 3.24h.95a15.66 15.66 0 0 0 12.92-6.3 20.36 20.36 0 0 0 4.43-13.06 13.26 13.26 0 0 0-4.57-10.4m-.44 16.5v1.87a8.79 8.79 0 0 1-2.46 6.23 7.47 7.47 0 0 1-5.46 2.33h-.91a13.53 13.53 0 0 1-5.7-1.7 20.39 20.39 0 0 1-8.41-7.23 16.81 16.81 0 0 1-2.73-9.33 10.75 10.75 0 0 1 2.57-7.37 9.11 9.11 0 0 1 7.24-3.08 14.34 14.34 0 0 1 11.71 5.86 18.94 18.94 0 0 1 4.13 11.89Z" fill="#720000" data-color="1"></path>
            <path d="m184.85 67.55-3.62-.17H180a19.66 19.66 0 0 0-8.22 1.85 16.86 16.86 0 0 0-7.12 5.77c-1.32 1.89-2 4.69-2 8.4A17 17 0 0 0 167 94.87a14.72 14.72 0 0 0 11.5 5.23h2.1a11.94 11.94 0 0 0 2.91-.53c1.28-.35 2.85-.88 4.74-1.58a24.4 24.4 0 0 0 2.19-.88 5.17 5.17 0 0 0 .65-.37 1.37 1.37 0 0 0 .39-.36l.1-.16-.1-.15a1.34 1.34 0 0 0-.32-.31.73.73 0 0 0-.41-.12h-.09a19.85 19.85 0 0 1-6.33 1.36c-3.87 0-7.46-1.56-10.83-4.71A17.43 17.43 0 0 1 167.67 81v-2.26a9.4 9.4 0 0 1 .2-1.59 5.06 5.06 0 0 1 .2-.83.87.87 0 0 1 .09-.21v-.06l.09-.07v-.11a6.56 6.56 0 0 1 3.75-5.11 12.25 12.25 0 0 1 5.8-1.34 16.61 16.61 0 0 1 6.76 1.48 9 9 0 0 1 3.06 2.1 3.67 3.67 0 0 1 1 2.49 4.89 4.89 0 0 1-.08.85l-.07.33h.86l.06-.2a15.33 15.33 0 0 1 3.35-6.49l.08-.08v-.7l-7.94-1.55Zm-17.5 11.21.19.11Zm.17 0Z" fill="#720000" data-color="1"></path>
            <path d="M217.11 98.41v1.02h8.59l-.47-.47a1.63 1.63 0 0 0-.4-.26 5.3 5.3 0 0 0-.63-.26 2 2 0 0 1-.9-.54 2 2 0 0 1-.12-.36 31.37 31.37 0 0 1-.5-3.18c-.24-2.12-.36-3.6-.36-4.43V74a39.19 39.19 0 0 1 .68-6v-.85l-.34.08a17.09 17.09 0 0 1-3.76.49h-.32l-.75-.07-.74-.06h-.33a1.36 1.36 0 0 0-.8.28l-.28.2.26.23a1.76 1.76 0 0 0 .64.4.91.91 0 0 1 .24.33 4.81 4.81 0 0 1 .32.85 7.07 7.07 0 0 1 .3 1.54v3.91c0 .08 0 .78.05 2.15s0 2.09 0 2.13a5.83 5.83 0 0 1-.12 1.34 1.08 1.08 0 0 1-.29.59 2.08 2.08 0 0 1-.86.25 13.24 13.24 0 0 1-1.87.1h-11.83a.87.87 0 0 0-.11-.09v-5.46c0-.07 0-.31.05-.71s0-.63 0-.75v-3.2a1.48 1.48 0 0 1 .05-.25 1.53 1.53 0 0 0 .08-.41V69s0-.24.09-.55.05-.3.07-.4 0-.17 0-.24a.75.75 0 0 0-.33-.62l-.13-.11-.15.07a9.72 9.72 0 0 1-3.85.75h-3.14v.5l.32.11.78.29a.61.61 0 0 1 .37.27 1.47 1.47 0 0 1 .25.65 36.17 36.17 0 0 1 .77 8.14v6.82l-.27 4V91c0 .15 0 .63-.14 1.38-.09 1.3-.18 2.59-.27 3.86a6.05 6.05 0 0 1-.47 1.85 1.91 1.91 0 0 1-.8.94l-.65.37 1.45.29 2-.2h6.17a.55.55 0 0 0 .4-.15.56.56 0 0 0 .15-.4v-.2l-.19-.06c-.63-.21-1.28-.43-1.93-.67a1.94 1.94 0 0 1-.75-.58 1.3 1.3 0 0 1-.23-.77V84.15a.28.28 0 0 1 .14-.18 1.15 1.15 0 0 1 .46-.08l14.07-1a1.19 1.19 0 0 1 .5.08l.06.06v.08l-.05.57a2.91 2.91 0 0 0-.05.49 2.58 2.58 0 0 0 0 .4l.09 10.82c-.16 1-.28 1.83-.37 2.39q-.06.42-.09.66" fill="#720000" data-color="1"></path>
            <path d="M207.52 53.4c-2.78-1-2.57-1.86-5.07-2.22l.35.29c-1.5 0-2.77-1-4-1.46.07-.18.39-.21.39-.42-1.52-.75-2.94-1.43-4.42-2.08.12.25.74.57.44.71-1.27-.17-.89-.65-2.12-.69l.43.41c-.06-.13-.22-.21 0-.17.45-.06.57.19.52.36-.5.23-1.59-.32-1.87-.66-1.37-.34-.63.38-.77.52h-.11a3.94 3.94 0 0 0-2.14-.73l-.42-.37-.1.26a2.5 2.5 0 0 1-.62-.23l.32.34c-1.29-.22 0-.65-1-.85.41.09.32.15.38.27-1.8-.92-1.15.14-2.19-.24.31.42 1.31.58 1.51.83a11 11 0 0 1-1.26-.58l.23.31a3.16 3.16 0 0 0-.5-.1c-1.61-.57-3.34-1-3.39-1.82a24.85 24.85 0 0 1-2.8-.52c-1-.21-1.94-.39-2.89-.63-1.91-.46-3.74-1-5.24-1.27-.44.11.23.18.05.3-1.09-.8-4.06-.29-4-.82a1.88 1.88 0 0 0-1.08.51 12 12 0 0 0-2.58-.92l.69.27-.09.06-1-.38-.73-.13a7 7 0 0 0-6.89-5.67h-1.51v-8.33h-2.63v-7.89h-9.85v7.89h-1.31v-3.5H140V8.51h-4.27v-.33h-2V2.57h-1v5.61h-1.64v.33h-1.59V1.67h-1.32V0h-4.26v1.67h-1v29.39h-1v-1.75h-1.58V18.82H119v-3.51h-1.31v-1.75h-1.31v-.66h-2v-.65h-4.27v.65h-2v.66h-.66v1.75h-1v3.51h-.66v12.24h-3.59v4.83h-3.94V15.71H91v2.63h-.66v12.34H87.1v-8.39h-4.6V17h-2v-4.36h-4.56v26.83h-.14.14v.29c-.22.11-.51.23-.53.35L72.26 40c0 .26.24.79 1 .57-1.12.46-2.41 0-3.42.17l.38.2-1-.06.07.35c-1.71.1-3.72.88-4.44.43l.3.52-1.94-.18 1.09.19c-2 .49-5.09.6-5.51.73l.22.16c-.3.18-.58.1-.94.11l.33.25c-3 .58-3.67 1.41-7.06 1.88-.89.3.52 0 .58.15a3.3 3.3 0 0 1-1.93.35c.38.41 1.73-.08.77.57-.81 0 .62.31-.72.55l-.67-.49c-.71.29 0 .52-1.2.75-1.4.07 1.44-1.1-.72-.66-1.07.3-1.86 2-4 2.27-1.68.83 1.2.68-1.28 1.24h1.67c-.26.21-.14.39-.5.54a2.62 2.62 0 0 0-1.57-.09c.15.1 1.24 0 1.51.11a3.39 3.39 0 0 1-.53.13 3.35 3.35 0 0 0-1.75-.12c1.71-.17.1.56-.14 1l-1.68.3c.22.15.27.32.16.51A14 14 0 0 1 41 52l-.26.08.12.1-1 .37c.65-.08 2.19-.48 1.62.18l-.42.17A8 8 0 0 0 40 53l.34-.29c-2.39.21-1.58-.82-3.94.09-.75.67.11.34.27.85-.63 0-2.29 1.07-3 .7l1.45-.48c-1.07.16-2 .45-2.79.49a.48.48 0 0 0 .43.16c-.86.08-1.89.43-2.41.21l-.06.62c.41-.39 1.84-.86 2.17-.63 0 .52-1.54.66-2.17.89 2.87-.7 3.16.15 5.43-.92h-.45c1.37-.86 3.09-.63 4.39-1-.34.22-.36.44-.16.48.29-.14.58-.27.88-.39 0 .14-.12.29 0 .42 1.42-.23 3-.48 4.48-.67-.24-.15-.91-.11-.73-.38 1.12-.51 1.06.1 2.08-.49l-.56-.13c.12.08.28.07.05.17-.34.28-.56.12-.62 0 .29-.46 1.47-.54 1.87-.39.61-.2.71-.35.66-.49l.88-.27 1.13.32v-.43c1.42-.51.69.3 1.29.25-.14 0-.14-.05-.21-.11 2 0 1-.63 2-.75-.6-.33-2.08.32-1.74-.38 2 0 4.87-.92 5.36 0a23.41 23.41 0 0 1 2.68-.93c.94-.2 1.93-.3 2.89-.41 1.93-.22 3.8-.36 5.29-.57.37-.25-.28-.1-.15-.27 1.28.38 3.87-1.1 4-.57a2 2 0 0 0 .85-.85 11.5 11.5 0 0 0 2.69 0h-.72l.06-.08h1a35.3 35.3 0 0 1 7.42-.35c-1.3-.19.23-.67-.38-.81 1.21.71 3.86.41 6 .07 0-.17.12-.34-.14-.45l1.28.2-.19-.19a14.29 14.29 0 0 1 3.39-.1 7.44 7.44 0 0 0 2.8-.09c-.92 0-.94-.21-1.06-.49a37.84 37.84 0 0 1 5-.05l-.18-.16a4.86 4.86 0 0 1 1.6.13v-.43a30.13 30.13 0 0 1 3.36.09c.43-.48 2.79.2 4.1 0 .51.09-1.12-.47.3-.47.23.92 1.84 0 2 1l1.23-.39.28.49c1-.95 1.62.39 3.17.07l-.17-.22c.51.1 1.67.14.77.41.83 0 3.67.16 2.39-.34.1.28-1.07.06-1.57 0 .06-.43 1.31-.29 1.62-.76a2.09 2.09 0 0 0 .33.19l.17-.27c1.57.44 3.17.06 4.3.73.07-.14.34-.23.88-.19v.54h1.66l-.76-.79c1.83-.11 3.09.81 4.59 1 .41-.88 2.91.41 4.24-.34l-1.16-.27c2.49.21 2.92-.28 5.24.19a21.32 21.32 0 0 0-4.92.59 12.9 12.9 0 0 1 2.05 0c.64.07 1.26.17 1.86.27a13.11 13.11 0 0 0 3.73.2c-.16-.23-.82-.41-.16-.58.49.49 2.5.16 2.07.66.83-.12 1-.61 1.52-.65l2.71.85-.08-.11a16 16 0 0 1 6.71.6 33.18 33.18 0 0 0 6.64 1.22l-.05-.3 1.11.59c-.88-.41.44-.3.55-.53l2.89 1.05c.11-.23 0-.82-.73-.82 1.18-.12 2.26.64 3.24.82l-.3-.29 1 .35v-.35c1.62.42 3.71.46 4.21 1.12l-.09-.6 1.66.77-.93-.56a36.57 36.57 0 0 1 5.26 1.32l-.13-.24c.34 0 .56.15.88.29L178 50c2.89.74 3.86.17 7 1.27.9.15-.46-.22-.43-.4a3.12 3.12 0 0 1 1.83.6c-.14-.55-1.55-.74-.41-.87.68.42-.4-.57.88-.15l.36.74c.75.08.26-.44 1.39-.1 1.24.6-1.77.3.3.92 1.06.2 2.58-.82 4.53.07 1.84.18-.65-1.22 1.73-.35-.47-.3-1-.58-1.44-.86a.53.53 0 0 0 .21-.06 2.84 2.84 0 0 0 1.18.6 8.6 8.6 0 0 0-1.11-.64c.18-.11.3-.22 1 .1a3.59 3.59 0 0 0 1.37 1.05c-1.55-.85.34-.5.72-.74l.88.38c-.12-.26-.07-.43.11-.53-.2-.05-.42-.14-.64-.21v-.11l1.08.31c.67.62.45 1 2.29 1.36 1-.16.09-.35.22-.87.51.38 2.51.37 2.94 1.08l-1.48-.39c1 .45 1.95.74 2.61 1.12a.48.48 0 0 0-.27-.36c.76.4 1.81.67 2.12 1.13l.4-.47c-.56.09-2-.3-2.17-.67.28-.44 1.66.29 2.31.45M177.18 46l1.44.69a1.45 1.45 0 0 1-1.44-.69m-1.8 0-.91-.53a1.53 1.53 0 0 1 .59-.13l.35.09-.28-.08a3.18 3.18 0 0 1 1.09.21c-.45.15.73.41.86.64a4.62 4.62 0 0 0-1.7-.2m-5.46-1.65a2.73 2.73 0 0 0 1.38.15c-.13-.24-.81-.31-1-.5 1.08-.32 3 1.56 2.65 0 .35.22 1.49.75 1.29 1h-.49a15.44 15.44 0 0 0-3.78-.3s-.06 0-.09.06h-.06.15v-.31a.75.75 0 0 1-.35-.25.54.54 0 0 1 .35.25m-12.5-1.14h-.83.76l.07.06m-72 .11-.34-.22h.09Zm-18.11 1.3h.33a.3.3 0 0 1 .18.24l-1 .16c-.23-.23.33-.15.53-.39m1.4.21a1.51 1.51 0 0 1-1 .18 7.27 7.27 0 0 1 1-.17m.08-.05c-.21 0-.92 0-1.13-.14h1.23a.45.45 0 0 1-.1.18m21.5-9H87.1v-1h3.28Zm64.53 7.39a.18.18 0 0 1 0 .21h-.31a13.25 13.25 0 0 0-1.51-.51l-.09-.19h.65l.39.13-.21-.13h.17Zm-74.27-.17.78.14a1.37 1.37 0 0 1-1.21-.06l.43-.08m-3.17-.54c-.31.16.51.46 1.23.24l-.32.59c-.07-.35-1.55-.08-1.72-.09-.33-.45.28-.33.81-.74m1.74.7a5.61 5.61 0 0 0 1.71.37 13.47 13.47 0 0 1-3.78.63 3.41 3.41 0 0 0 2.07-1m4.15-.33a2.55 2.55 0 0 1 1.11.26l-.16.14-.78-.06c.12-.16 0-.26-.17-.34m1.28.39h-.11.07m-19 2h-.14a1.61 1.61 0 0 0 .33.06l-.7.47c-.17.05-.34.08-.52.14l-.71.47-.85.1a5.92 5.92 0 0 1-.64-.48c1.2-.5 2.28-1.2 3.23-.78m-4-1.72a2.23 2.23 0 0 1 1.31-.33 1.66 1.66 0 0 1-1.31.33m.09-.35c-1.17.59-1.09-.19-1.86-.11.93-.5.92.19 1.86.11m-7 4.2a.69.69 0 0 1 .47 0 1.2 1.2 0 0 0 .41-.27l.11.09a.45.45 0 0 1-.52.18c-.21.11-.45.21-.7.31 0 .13.08.21.24.28h-1l.72-.31a.58.58 0 0 1 .23-.31m-6.89.95h.52c.28.07.16.25.27.33-.58.11-1.38.07-.79-.31m8.85.11-.58.1.77-.36Zm3.37-1.11h.16c-.65 0-.56-.57-1.25-.56a1.68 1.68 0 0 1 .83-.33.85.85 0 0 1 .32 0h-.31a.83.83 0 0 0 .38.07 2.16 2.16 0 0 0 1.43.33.53.53 0 0 0 .13-.1l1.27.23c-.61.65-1.79.53-3 .4m3-.8a1.94 1.94 0 0 1 .55 0l-.15.1a1.68 1.68 0 0 1-.4-.15m4.68-.09a2.71 2.71 0 0 0-1.34.32c.2.18.86 0 1.14.12-.89.66-3.37-.44-2.48.88-.44-.1-1.93-.22-1.49-.56a15.75 15.75 0 0 0 4.06-1.05c0-.09.12-.16.31-.21a1.34 1.34 0 0 1-.31.21l.11.29a.74.74 0 0 1 .41.11.54.54 0 0 1-.41-.11m2.71-.77a9.36 9.36 0 0 0-4.5-.08c2.06-.81 3.55.2 5.75-.33-.21-.18-.55-.2-.59-.37a.93.93 0 0 1 .42-.06l.24.09c.75.37-.9.67-1.32.75m9.47.31-.38-.13c1.16-.36.58-.08.48.12l.58.14c-.55 0-.62 0-.58-.14m2.44-.92c-.12.34-1.71.46-2.16.34.66-.12 2.4-.41 2.16-.34m.45-1.36a2.59 2.59 0 0 0-.68 0 1.72 1.72 0 0 1 .68 0c.37.07.66.2.58.41-.88-.08-.35-.3-.58-.41m.61-.42.08-.08.54.18Zm7.15 0c-1-.17-.74.2-1.22.33l.27-.5a5.87 5.87 0 0 1 2.56.84c-1.3.38-1.74-.32-1.61-.67m1.14 1.21a1.28 1.28 0 0 1-.54.15l.54-.15c.62-.31.7-1 1.67-.37Zm31.31-.36a.92.92 0 0 1-.46 0h.46c.37-.06.64-.28.71.06Zm3.88.09c-.34-.26-1.51-.35-1.52-.71 1 .41 1.75-.57 1.92.18a1.91 1.91 0 0 0-.75-.09c.17.22.85.55.35.62m8.26-1-.24-.36h.25c-.15-.05-.31-.08-.46-.12h1.18c.48.2.87.47 1.2.56-.59-.07-2.16-1-1.92-.09m10 1.39c.76.31 1.13-.31 1.71.35-.83.48-1.28-.1-1.71-.35m2.32-.08c1.26 0-.55-.63.28-.73h-.65c1.09-.28.71.51 1.47.47h-.51c-.42.32.74.33.81.63-.6.08-1.91-.35-1.4-.36m10.64-1.49.52.06-.22.13-.3-.19m1.79 1.37c.34-.06-.36-.59-1.12-.59l.47-.47c0 .35 1.47.53 1.63.59.19.53-.36.24-1 .47m12.62 1.35h.21l1.29-.3a1.74 1.74 0 0 1 .47.47 4.28 4.28 0 0 1-2-.17m1.34 2.56a1.61 1.61 0 0 1 1.32.17 2.16 2.16 0 0 1-1.32-.17m1.11.45c1.29-.13.93.57 1.65.77-1 .14-.76-.5-1.65-.77m7-1.29h.08l.21.09a.85.85 0 0 0-.22.06Zm7.54 2.56-.46-.23c-.21-.19 0-.29-.08-.42.56.18 1.25.6.54.65m7.75-.28h.11a2.29 2.29 0 0 0 .53.29l-.44.06a5.52 5.52 0 0 1 1.09.74c-.64-.37-2.14-.89-1.29-1.12" fill="#720000" data-color="1"></path>
        </g>
    </g>
</svg>